<svg width="278" height="56" viewBox="0 0 278 56" fill="none" xmlns="http://www.w3.org/2000/svg">
<path d="M43.7734 21.0742H52.7578V40H43.7734V21.0742ZM37.0156 14.082H59.5156V19.7266H37.0156V14.082ZM79.1641 14.082H87.875V40H79.2227V29.4727H72.8164V24.2773H79.1641V14.082ZM71.4492 40H62.8164V14.082H71.4492V40ZM101.059 29.3555V40H92.4258V14.082H101.059V24.3555H109.32V29.3555H101.059ZM102.426 19.1016V14.082H115.922V21.582H107.797V19.1016H102.426ZM102.426 40V34.8242H107.289V32.2266H115.922V40H102.426ZM130.434 14.082H139.066V25.6641H147.035V30.7617H139.066V40H130.434V14.082ZM140.434 19.2578V14.082H153.598V22.6758H144.965V19.2578H140.434ZM164.867 40H156.234V30.7031L161.762 25.5078H171.977V14.082H175.434L180.609 19.2578V25.6641L175.434 30.8398H164.867V40ZM164.867 18.75V22.5195H156.234V19.2578L161.43 14.082H170.609V18.75H164.867ZM166.234 40V35.332H180.609V40H166.234ZM193.637 29.3555V40H185.004V14.082H193.637V24.3555H201.898V29.3555H193.637ZM195.004 19.1016V14.082H208.5V21.582H200.375V19.1016H195.004ZM195.004 40V34.8242H199.867V32.2266H208.5V40H195.004Z" fill="#232946"/>
<path d="M226.592 15.6641H228.057V18.1934H226.592V20H222.441V7.04102H226.592V15.6641ZM215.127 15.791L221.758 7.91992V13.0469L219.404 15.6641H221.758V18.1934H216.152L215.127 15.791ZM234.043 17.4121H236.895V20H232.324L229.727 17.4121V12.2168H228.867V9.62891H229.727V8.50586L234.043 7.04102V17.4121ZM234.727 12.2168V9.62891H237.051V12.2168H234.727ZM238.555 5.67383H242.871V20H238.555V5.67383ZM245.459 12.2168H243.555V10.9082L244.824 9.62891H247.188L249.785 12.2168V20H245.459V12.2168Z" fill="#232946"/>
<path d="M267 0V56" stroke="#232946" stroke-width="3"/>
</svg>
