<svg width="90" height="90" viewBox="0 0 90 90" fill="none" xmlns="http://www.w3.org/2000/svg">
<path d="M21.3817 23.8029C21.8055 23.8029 22.1162 23.7181 22.54 23.4074L32.5407 16.0905C32.9927 15.7515 33.2752 15.2712 33.2752 14.7909C33.2752 14.1694 32.9644 13.6327 32.4559 13.1807C31.2411 12.1636 29.2919 11.5986 27.4838 11.5986C22.9072 11.5986 19.2064 15.2147 19.2064 19.7065C19.2064 20.8648 19.4042 21.9383 19.7149 22.6446C20.0257 23.3509 20.6472 23.8029 21.3817 23.8029ZM68.5884 23.8029C69.3229 23.8029 69.9162 23.3226 70.2552 22.6446C70.5659 21.9666 70.7354 20.8648 70.7354 19.7065C70.7354 15.2147 67.0629 11.5986 62.4863 11.5986C60.65 11.5986 58.7289 12.1636 57.5142 13.1807C57.0057 13.6327 56.6949 14.1694 56.6949 14.7909C56.6949 15.2712 56.9492 15.7515 57.4294 16.0905L67.4301 23.4074C67.8539 23.7181 68.1646 23.8029 68.5884 23.8029ZM21.0992 70.5293C22.088 71.5181 23.6417 71.4898 24.6305 70.4728L29.2071 65.9245C33.6424 69.0885 39.0948 70.9531 44.9709 70.9531C50.8753 70.9531 56.2994 69.0885 60.763 65.9245L65.3396 70.4728C66.3283 71.4898 67.8821 71.5181 68.8709 70.5293C69.8032 69.597 69.8314 68.0715 68.8426 67.111L64.4638 62.7604C69.2381 57.8448 72.2045 51.1494 72.2045 43.7478C72.2045 28.7185 60.0285 16.5425 44.9709 16.5425C29.9416 16.5425 17.7656 28.7185 17.7656 43.7478C17.7656 51.1494 20.7037 57.8448 25.5063 62.7604L21.1274 67.111C20.1387 68.0715 20.1669 69.597 21.0992 70.5293ZM44.9709 65.2747C33.0774 65.2747 23.444 55.6413 23.444 43.7478C23.444 31.8543 33.0774 22.2208 44.9709 22.2208C56.8644 22.2208 66.4978 31.8543 66.4978 43.7478C66.4978 55.6413 56.8644 65.2747 44.9709 65.2747ZM32.7102 47.2508H44.9709C46.2139 47.2508 47.1745 46.2903 47.1745 45.0473V28.6337C47.1745 27.3907 46.2139 26.4302 44.9709 26.4302C43.7279 26.4302 42.7674 27.3907 42.7674 28.6337V42.8437H32.7102C31.4671 42.8437 30.5066 43.8325 30.5066 45.0473C30.5066 46.2903 31.4671 47.2508 32.7102 47.2508Z" fill="#FFFFFE"/>
</svg>
