<svg width="90" height="90" viewBox="0 0 90 90" fill="none" xmlns="http://www.w3.org/2000/svg">
<path d="M44.9728 73.0999C60.9909 73.0999 74.2121 59.8786 74.2121 43.8888C74.2121 27.899 60.9626 14.6777 44.9445 14.6777C28.9547 14.6777 15.7617 27.899 15.7617 43.8888C15.7617 59.8786 28.983 73.0999 44.9728 73.0999ZM44.9728 53.6635C37.0061 53.6635 30.8193 56.5168 27.8247 59.7939C23.9826 55.641 21.6378 50.0474 21.6378 43.8888C21.6378 30.9218 32.0058 20.5256 44.9445 20.5256C57.9115 20.5256 68.336 30.9218 68.3643 43.8888C68.3643 50.0474 66.0195 55.641 62.1491 59.8221C59.1546 56.5168 52.9677 53.6635 44.9728 53.6635ZM44.9728 49.0304C50.4534 49.0869 54.7192 44.3973 54.7192 38.3517C54.7192 32.6451 50.4252 27.8707 44.9728 27.8707C39.5487 27.8707 35.2264 32.6451 35.2546 38.3517C35.2829 44.3973 39.5204 49.0022 44.9728 49.0304Z" fill="#FFFFFE"/>
</svg>
