<svg width="90" height="90" viewBox="0 0 90 90" fill="none" xmlns="http://www.w3.org/2000/svg">
<path d="M44.9728 73.0999C60.9909 73.0999 74.2121 59.8786 74.2121 43.8888C74.2121 27.899 60.9626 14.6777 44.9445 14.6777C28.9547 14.6777 15.7617 27.899 15.7617 43.8888C15.7617 59.8786 28.983 73.0999 44.9728 73.0999ZM44.9728 67.2803C32.0058 67.2803 21.6378 56.8558 21.6378 43.8888C21.6378 30.9218 32.0058 20.5256 44.9445 20.5256C57.9115 20.5256 68.336 30.9218 68.3643 43.8888C68.3925 56.8558 57.9398 67.2803 44.9728 67.2803ZM34.5483 46.5726H42.289V54.3415C42.289 55.8953 43.3908 56.9971 44.9163 56.9971C46.4983 56.9971 47.6283 55.8953 47.6283 54.3415V46.5726H55.3973C56.951 46.5726 58.0811 45.4708 58.0811 43.9171C58.0811 42.3633 56.9793 41.2333 55.3973 41.2333H47.6283V33.4644C47.6283 31.8823 46.4983 30.7806 44.9163 30.7806C43.3908 30.7806 42.289 31.8823 42.289 33.4644V41.2333H34.5483C32.9381 41.2333 31.8363 42.3633 31.8363 43.9171C31.8363 45.4708 32.9663 46.5726 34.5483 46.5726Z" fill="#FFFFFE"/>
</svg>
